<?xml version="1.0" encoding="utf-8"?>
<!-- Generator: Adobe Illustrator 24.3.0, SVG Export Plug-In . SVG Version: 6.00 Build 0)  -->
<svg version="1.1" id="Capa_1" xmlns="http://www.w3.org/2000/svg" xmlns:xlink="http://www.w3.org/1999/xlink" x="0px" y="0px"
	 viewBox="0 0 640 325" style="enable-background:new 0 0 640 325;" xml:space="preserve">
<style type="text/css">
	.st0{clip-path:url(#SVGID_2_);fill:#008997;}
	.st1{clip-path:url(#SVGID_2_);}
	.st2{fill:#FFDA00;}
	.st3{clip-path:url(#SVGID_2_);fill:none;stroke:#000000;stroke-width:2;stroke-miterlimit:10;}
	.st4{stroke:#FFFFFF;stroke-width:12;stroke-linecap:round;stroke-linejoin:round;stroke-miterlimit:10;}
	.st5{fill:#484B79;}
	.st6{clip-path:url(#SVGID_4_);fill:#008997;}
	.st7{clip-path:url(#SVGID_4_);}
	.st8{clip-path:url(#SVGID_4_);fill:none;stroke:#000000;stroke-width:2;stroke-miterlimit:10;}
</style>
<g>
	<defs>
		<polygon id="SVGID_1_" points="831.3,759.7 1124.3,607.7 988.3,395.7 701.3,549.7 		"/>
	</defs>
	<clipPath id="SVGID_2_">
		<use xlink:href="#SVGID_1_"  style="overflow:visible;"/>
	</clipPath>
	<polygon class="st0" points="831.3,759.7 1124.3,607.7 988.3,395.7 701.3,549.7 	"/>
	<g class="st1">
		
			<image style="overflow:visible;opacity:0.79;" width="1451" height="925" xlink:href="6EC9D456.png"  transform="matrix(0.24 0 0 0.24 791.2534 556.9867)">
		</image>
		<g>
			<path class="st2" d="M848.3,572.2c0,0-47,76-41.5,146c27,45.5,27,45.5,27,45.5l290.5-156l-10-19
				C1114.3,588.7,899.8,751.7,848.3,572.2z"/>
		</g>
	</g>
	<g class="st1">
		
			<image style="overflow:visible;opacity:0.79;" width="1361" height="652" xlink:href="6EC9D45A.png"  transform="matrix(0.24 0 0 0.24 696.6934 428.3467)">
		</image>
		<g>
			<path class="st2" d="M940.8,482.7l12-2.5c0,0,0.5-7,12-10.5c7-2,11.5,2,11.5,2l29.5-14c0,0,5,3,0,5s-24.5,13-24.5,13
				s-1.5,14-8.5,17.5s-8.5,6-8.5,6s-8.5,1-10.5-4.5s-42.5,25-42.5,25l-13.5,10.5c0,0-11.5,15.5-22,18.5s-32.5,15-31,5
				c-31.5,8-50.5,16-50.5,16l1.5-3l50.5-20l2-10l-15-3.5c0,0-6,3.5-11.5,6s-14,4-21.5,5s-13.5,4-23,4.5s-9.5,0.5-9.5,0.5l-53.5,12
				c0,0-11-0.5,13-6.5c26.5-7,107.5-34,107.5-34l-10-12c0,0-6.5-9.5,8-2.5c14.5,7,14.5,7,14.5,7s13.5-10.5,24-8
				c11-14,50.5-66,64.5-61.5c11.5,2,24,5,19.5,14.5S940.8,482.7,940.8,482.7z"/>
		</g>
	</g>
	<ellipse class="st1" cx="866.8" cy="515.4" rx="7.5" ry="7.2"/>
	<ellipse class="st1" cx="967.8" cy="478.9" rx="7.5" ry="7.2"/>
	<path class="st1" d="M939.4,444.3c0,0-10.5,5.3-11,7.8c-0.5,2.5-0.5,2.5,7.3-0.9c7.8-3.4,11.7-4.2,11.7-4.2L939.4,444.3z"/>
	<path class="st3" d="M880.4,501.5c-0.1,0.1-0.2,0.2-0.2,0.3c-0.3,0.3-0.5,0.6-0.7,0.9c-0.1,0.1-0.1,0.2-0.2,0.2
		c-0.3,0.3-0.5,0.6-0.7,0.9l43.6-47.2c0,0-0.1,0.1-0.3,0.3c-0.1,0.1-0.1,0.1-0.2,0.2c-0.1,0.1-0.1,0.1-0.2,0.2
		c-0.1,0.1-0.1,0.1-0.2,0.2c-0.2,0.2-0.4,0.4-0.6,0.6c0,0,0,0,0,0c-0.2,0.2-0.4,0.4-0.6,0.6c-0.2,0.2-0.4,0.4-0.6,0.6
		c-0.2,0.2-0.3,0.4-0.5,0.6c-0.1,0.1-0.3,0.3-0.4,0.4c-0.1,0.1-0.3,0.3-0.4,0.4l0-0.1c-1.9,2-4.4,4.6-7.3,7.6l0,0
		c-0.1,0.1-0.2,0.2-0.3,0.4c-0.2,0.2-0.4,0.4-0.6,0.7c-0.3,0.4-0.7,0.7-1,1.1c-0.2,0.2-0.4,0.4-0.6,0.6c-0.4,0.4-0.7,0.8-1.1,1.2
		c-0.2,0.2-0.4,0.4-0.6,0.6c-0.4,0.4-0.8,0.9-1.2,1.3c-0.2,0.2-0.3,0.3-0.5,0.5c-0.6,0.6-1.2,1.2-1.8,1.9c-0.1,0.1-0.2,0.2-0.3,0.3
		c-0.5,0.5-1,1-1.5,1.6c-0.2,0.2-0.4,0.4-0.6,0.6c-0.4,0.4-0.8,0.9-1.2,1.3c-0.2,0.2-0.4,0.5-0.7,0.7c-0.4,0.4-0.7,0.8-1.1,1.2
		c-0.2,0.3-0.5,0.5-0.7,0.8c-0.4,0.4-0.7,0.8-1.1,1.1c-0.2,0.3-0.5,0.5-0.7,0.8c-0.4,0.4-0.8,0.8-1.1,1.2c-0.2,0.2-0.4,0.4-0.6,0.6
		c-0.5,0.5-0.9,1-1.4,1.5c-0.1,0.1-0.2,0.2-0.3,0.3c-0.6,0.6-1.1,1.2-1.6,1.8c-0.2,0.2-0.3,0.3-0.5,0.5c-0.4,0.4-0.8,0.8-1.1,1.3
		c-0.2,0.2-0.4,0.4-0.6,0.6c-0.3,0.4-0.6,0.7-1,1.1c-0.2,0.2-0.4,0.4-0.6,0.7c-0.2,0.2-0.3,0.3-0.5,0.5l0.1-0.1
		c-1.3,1.4-2.5,2.8-3.5,4l0,0c-0.2,0.2-0.3,0.4-0.5,0.6c-0.2,0.3-0.5,0.5-0.7,0.8C880.9,500.8,880.6,501.2,880.4,501.5z"/>
</g>
<g>
	<path class="st4" d="M930.9,547.1h12.9l16.6,47l16.9-47h12.9l-23.8,66.1h-12.1L930.9,547.1z"/>
	<path class="st4" d="M1002,544.1c1.4,0,2.7,0.5,3.7,1.5c1,1,1.5,2.2,1.5,3.7c0,1.4-0.5,2.6-1.5,3.6c-1,1-2.2,1.5-3.7,1.5
		c-1.4,0-2.6-0.5-3.6-1.5c-1-1-1.5-2.2-1.5-3.6c0-1.4,0.5-2.7,1.5-3.7C999.4,544.7,1000.6,544.1,1002,544.1z M998.9,564.3h6.3v48.9
		h-6.3V564.3z"/>
	<path class="st4" d="M1053.5,564.3h12.3v48.9h-12.3V608c-2.4,2.3-4.8,3.9-7.2,4.9c-2.4,1-5,1.5-7.8,1.5c-6.3,0-11.8-2.5-16.4-7.3
		c-4.6-4.9-6.9-11-6.9-18.3c0-7.6,2.2-13.7,6.7-18.6c4.5-4.8,9.9-7.2,16.3-7.2c2.9,0,5.7,0.6,8.3,1.7c2.6,1.1,5,2.8,7.1,5V564.3z
		 M1040.6,574.4c-3.8,0-6.9,1.3-9.5,4c-2.5,2.7-3.8,6.1-3.8,10.3c0,4.2,1.3,7.7,3.8,10.4c2.6,2.7,5.7,4.1,9.4,4.1c3.9,0,7-1.3,9.6-4
		c2.5-2.7,3.8-6.2,3.8-10.5c0-4.3-1.3-7.7-3.8-10.3C1047.7,575.7,1044.5,574.4,1040.6,574.4z"/>
	<path class="st4" d="M1078.2,564.3h6.4v56.3c0,4.1-0.7,7.1-2.2,9c-1.5,1.9-3.5,2.8-6.1,2.8c-2.1,0-4.5-0.5-7.2-1.5v-5.7
		c1.7,0.9,3.2,1.3,4.5,1.3c1.7,0,3-0.7,3.8-2.1c0.5-0.9,0.8-2.8,0.8-5.6V564.3z M1081.3,544.1c1.4,0,2.7,0.5,3.7,1.5
		c1,1,1.5,2.2,1.5,3.7c0,1.4-0.5,2.6-1.5,3.6c-1,1-2.2,1.5-3.7,1.5s-2.7-0.5-3.7-1.5c-1-1-1.5-2.2-1.5-3.6c0-1.4,0.5-2.7,1.5-3.7
		C1078.7,544.7,1079.9,544.1,1081.3,544.1z"/>
	<path class="st4" d="M1145.9,592.3h-39.4c0.6,3.5,2.1,6.2,4.6,8.3c2.5,2.1,5.6,3.1,9.5,3.1c4.6,0,8.5-1.6,11.8-4.8l10.3,4.9
		c-2.6,3.7-5.7,6.4-9.3,8.1c-3.6,1.8-7.9,2.6-12.8,2.6c-7.7,0-13.9-2.4-18.7-7.3c-4.8-4.8-7.2-10.9-7.2-18.2
		c0-7.5,2.4-13.7,7.2-18.6c4.8-4.9,10.8-7.4,18.1-7.4c7.7,0,14,2.5,18.8,7.4c4.8,4.9,7.2,11.4,7.2,19.5L1145.9,592.3z M1133.6,582.6
		c-0.8-2.7-2.4-4.9-4.8-6.7s-5.2-2.6-8.3-2.6c-3.4,0-6.4,1-9,2.9c-1.6,1.2-3.1,3.3-4.5,6.3H1133.6z"/>
	<path class="st4" d="M1181.2,569.6l-4,4.2c-3.4-3.3-6.7-4.9-9.9-4.9c-2,0-3.8,0.7-5.3,2c-1.5,1.3-2.2,2.9-2.2,4.7
		c0,1.6,0.6,3.1,1.8,4.5c1.2,1.5,3.7,3.2,7.6,5.2c4.7,2.4,7.9,4.8,9.5,7c1.7,2.3,2.5,4.8,2.5,7.7c0,4-1.4,7.4-4.2,10.2
		s-6.3,4.2-10.6,4.2c-2.8,0-5.5-0.6-8.1-1.8s-4.7-2.9-6.4-5.1l4-4.5c3.2,3.6,6.6,5.4,10.2,5.4c2.5,0,4.7-0.8,6.4-2.4
		s2.7-3.5,2.7-5.7c0-1.8-0.6-3.4-1.8-4.8c-1.2-1.4-3.8-3.1-7.9-5.2c-4.4-2.3-7.4-4.5-9-6.7c-1.6-2.2-2.4-4.7-2.4-7.6
		c0-3.7,1.3-6.8,3.8-9.3c2.5-2.5,5.7-3.7,9.6-3.7C1172.1,563,1176.7,565.2,1181.2,569.6z"/>
	<path class="st4" d="M1213.7,547.1h12.9l16.6,47l16.9-47h12.9l-23.8,66.1h-12.1L1213.7,547.1z"/>
	<path class="st4" d="M1284.8,544.1c1.4,0,2.7,0.5,3.7,1.5c1,1,1.5,2.2,1.5,3.7c0,1.4-0.5,2.6-1.5,3.6c-1,1-2.2,1.5-3.7,1.5
		c-1.4,0-2.6-0.5-3.6-1.5c-1-1-1.5-2.2-1.5-3.6c0-1.4,0.5-2.7,1.5-3.7C1282.2,544.7,1283.4,544.1,1284.8,544.1z M1281.7,564.3h6.3
		v48.9h-6.3V564.3z"/>
	<path class="st4" d="M1297.3,564.3h10.5v6.2c1.1-2.4,2.7-4.3,4.5-5.5c1.9-1.3,4-1.9,6.2-1.9c1.6,0,3.3,0.4,5,1.3l-3.8,10.6
		c-1.4-0.7-2.6-1.1-3.6-1.1c-1.9,0-3.5,1.2-4.8,3.5s-2,6.9-2,13.8l0,2.4v19.8h-12.2V564.3z"/>
	<path class="st4" d="M1372.6,564.3h6.3v39c0,6.9-0.6,11.9-1.8,15.1c-1.6,4.5-4.5,8-8.6,10.4c-4.1,2.4-9,3.6-14.7,3.6
		c-4.2,0-8-0.6-11.3-1.8c-3.3-1.2-6.1-2.8-8.2-4.8c-2.1-2-4-4.9-5.8-8.8h6.8c1.9,3.2,4.3,5.6,7.2,7.2c2.9,1.6,6.6,2.3,10.9,2.3
		c4.3,0,7.9-0.8,10.9-2.4c3-1.6,5.1-3.6,6.3-6c1.3-2.4,1.9-6.3,1.9-11.7v-2.5c-2.4,3-5.3,5.3-8.7,6.9s-7.1,2.4-10.9,2.4
		c-4.5,0-8.7-1.1-12.7-3.3c-4-2.2-7-5.2-9.2-9c-2.2-3.8-3.2-7.9-3.2-12.5c0-4.5,1.1-8.7,3.4-12.7c2.2-3.9,5.4-7,9.3-9.3
		c4-2.3,8.2-3.4,12.6-3.4c3.7,0,7.1,0.8,10.2,2.3c3.2,1.5,6.2,4,9.2,7.5V564.3z M1354.1,569.1c-3.6,0-6.9,0.9-9.9,2.6
		c-3.1,1.7-5.5,4.1-7.2,7.1c-1.7,3-2.6,6.3-2.6,9.9c0,5.4,1.8,9.8,5.4,13.3c3.6,3.5,8.3,5.3,14,5.3c5.8,0,10.4-1.7,14-5.2
		c3.5-3.5,5.3-8,5.3-13.7c0-3.7-0.8-7-2.4-9.9c-1.6-2.9-3.9-5.2-6.9-6.9C1360.7,569.9,1357.5,569.1,1354.1,569.1z"/>
	<path class="st4" d="M1414.6,563c4.6,0,9,1.2,13,3.5c4.1,2.3,7.2,5.4,9.5,9.4c2.3,4,3.4,8.2,3.4,12.8c0,4.6-1.1,8.9-3.4,12.9
		c-2.3,4-5.4,7.2-9.4,9.4c-4,2.3-8.3,3.4-13.1,3.4c-7,0-13-2.5-18-7.5c-5-5-7.4-11.1-7.4-18.2c0-7.6,2.8-14,8.4-19.1
		C1402.5,565.2,1408.2,563,1414.6,563z M1414.8,574.6c-3.8,0-7,1.3-9.5,4c-2.5,2.7-3.8,6-3.8,10.2c0,4.3,1.3,7.7,3.8,10.3
		c2.5,2.6,5.7,4,9.5,4s7-1.3,9.6-4c2.6-2.7,3.8-6.1,3.8-10.3c0-4.2-1.3-7.6-3.8-10.2C1421.9,575.9,1418.7,574.6,1414.8,574.6z"/>
</g>
<g>
	<path class="st5" d="M930.9,547.1h12.9l16.6,47l16.9-47h12.9l-23.8,66.1h-12.1L930.9,547.1z"/>
	<path class="st5" d="M1002,544.1c1.4,0,2.7,0.5,3.7,1.5c1,1,1.5,2.2,1.5,3.7c0,1.4-0.5,2.6-1.5,3.6c-1,1-2.2,1.5-3.7,1.5
		c-1.4,0-2.6-0.5-3.6-1.5c-1-1-1.5-2.2-1.5-3.6c0-1.4,0.5-2.7,1.5-3.7C999.4,544.7,1000.6,544.1,1002,544.1z M998.9,564.3h6.3v48.9
		h-6.3V564.3z"/>
	<path class="st5" d="M1053.5,564.3h12.3v48.9h-12.3V608c-2.4,2.3-4.8,3.9-7.2,4.9c-2.4,1-5,1.5-7.8,1.5c-6.3,0-11.8-2.5-16.4-7.3
		c-4.6-4.9-6.9-11-6.9-18.3c0-7.6,2.2-13.7,6.7-18.6c4.5-4.8,9.9-7.2,16.3-7.2c2.9,0,5.7,0.6,8.3,1.7c2.6,1.1,5,2.8,7.1,5V564.3z
		 M1040.6,574.4c-3.8,0-6.9,1.3-9.5,4c-2.5,2.7-3.8,6.1-3.8,10.3c0,4.2,1.3,7.7,3.8,10.4c2.6,2.7,5.7,4.1,9.4,4.1c3.9,0,7-1.3,9.6-4
		c2.5-2.7,3.8-6.2,3.8-10.5c0-4.3-1.3-7.7-3.8-10.3C1047.7,575.7,1044.5,574.4,1040.6,574.4z"/>
	<path class="st5" d="M1078.2,564.3h6.4v56.3c0,4.1-0.7,7.1-2.2,9c-1.5,1.9-3.5,2.8-6.1,2.8c-2.1,0-4.5-0.5-7.2-1.5v-5.7
		c1.7,0.9,3.2,1.3,4.5,1.3c1.7,0,3-0.7,3.8-2.1c0.5-0.9,0.8-2.8,0.8-5.6V564.3z M1081.3,544.1c1.4,0,2.7,0.5,3.7,1.5
		c1,1,1.5,2.2,1.5,3.7c0,1.4-0.5,2.6-1.5,3.6c-1,1-2.2,1.5-3.7,1.5s-2.7-0.5-3.7-1.5c-1-1-1.5-2.2-1.5-3.6c0-1.4,0.5-2.7,1.5-3.7
		C1078.7,544.7,1079.9,544.1,1081.3,544.1z"/>
	<path class="st5" d="M1145.9,592.3h-39.4c0.6,3.5,2.1,6.2,4.6,8.3c2.5,2.1,5.6,3.1,9.5,3.1c4.6,0,8.5-1.6,11.8-4.8l10.3,4.9
		c-2.6,3.7-5.7,6.4-9.3,8.1c-3.6,1.8-7.9,2.6-12.8,2.6c-7.7,0-13.9-2.4-18.7-7.3c-4.8-4.8-7.2-10.9-7.2-18.2
		c0-7.5,2.4-13.7,7.2-18.6c4.8-4.9,10.8-7.4,18.1-7.4c7.7,0,14,2.5,18.8,7.4c4.8,4.9,7.2,11.4,7.2,19.5L1145.9,592.3z M1133.6,582.6
		c-0.8-2.7-2.4-4.9-4.8-6.7s-5.2-2.6-8.3-2.6c-3.4,0-6.4,1-9,2.9c-1.6,1.2-3.1,3.3-4.5,6.3H1133.6z"/>
	<path class="st5" d="M1181.2,569.6l-4,4.2c-3.4-3.3-6.7-4.9-9.9-4.9c-2,0-3.8,0.7-5.3,2c-1.5,1.3-2.2,2.9-2.2,4.7
		c0,1.6,0.6,3.1,1.8,4.5c1.2,1.5,3.7,3.2,7.6,5.2c4.7,2.4,7.9,4.8,9.5,7c1.7,2.3,2.5,4.8,2.5,7.7c0,4-1.4,7.4-4.2,10.2
		s-6.3,4.2-10.6,4.2c-2.8,0-5.5-0.6-8.1-1.8s-4.7-2.9-6.4-5.1l4-4.5c3.2,3.6,6.6,5.4,10.2,5.4c2.5,0,4.7-0.8,6.4-2.4
		s2.7-3.5,2.7-5.7c0-1.8-0.6-3.4-1.8-4.8c-1.2-1.4-3.8-3.1-7.9-5.2c-4.4-2.3-7.4-4.5-9-6.7c-1.6-2.2-2.4-4.7-2.4-7.6
		c0-3.7,1.3-6.8,3.8-9.3c2.5-2.5,5.7-3.7,9.6-3.7C1172.1,563,1176.7,565.2,1181.2,569.6z"/>
	<path class="st5" d="M1213.7,547.1h12.9l16.6,47l16.9-47h12.9l-23.8,66.1h-12.1L1213.7,547.1z"/>
	<path class="st5" d="M1284.8,544.1c1.4,0,2.7,0.5,3.7,1.5c1,1,1.5,2.2,1.5,3.7c0,1.4-0.5,2.6-1.5,3.6c-1,1-2.2,1.5-3.7,1.5
		c-1.4,0-2.6-0.5-3.6-1.5c-1-1-1.5-2.2-1.5-3.6c0-1.4,0.5-2.7,1.5-3.7C1282.2,544.7,1283.4,544.1,1284.8,544.1z M1281.7,564.3h6.3
		v48.9h-6.3V564.3z"/>
	<path class="st5" d="M1297.3,564.3h10.5v6.2c1.1-2.4,2.7-4.3,4.5-5.5c1.9-1.3,4-1.9,6.2-1.9c1.6,0,3.3,0.4,5,1.3l-3.8,10.6
		c-1.4-0.7-2.6-1.1-3.6-1.1c-1.9,0-3.5,1.2-4.8,3.5s-2,6.9-2,13.8l0,2.4v19.8h-12.2V564.3z"/>
	<path class="st5" d="M1372.6,564.3h6.3v39c0,6.9-0.6,11.9-1.8,15.1c-1.6,4.5-4.5,8-8.6,10.4c-4.1,2.4-9,3.6-14.7,3.6
		c-4.2,0-8-0.6-11.3-1.8c-3.3-1.2-6.1-2.8-8.2-4.8c-2.1-2-4-4.9-5.8-8.8h6.8c1.9,3.2,4.3,5.6,7.2,7.2c2.9,1.6,6.6,2.3,10.9,2.3
		c4.3,0,7.9-0.8,10.9-2.4c3-1.6,5.1-3.6,6.3-6c1.3-2.4,1.9-6.3,1.9-11.7v-2.5c-2.4,3-5.3,5.3-8.7,6.9s-7.1,2.4-10.9,2.4
		c-4.5,0-8.7-1.1-12.7-3.3c-4-2.2-7-5.2-9.2-9c-2.2-3.8-3.2-7.9-3.2-12.5c0-4.5,1.1-8.7,3.4-12.7c2.2-3.9,5.4-7,9.3-9.3
		c4-2.3,8.2-3.4,12.6-3.4c3.7,0,7.1,0.8,10.2,2.3c3.2,1.5,6.2,4,9.2,7.5V564.3z M1354.1,569.1c-3.6,0-6.9,0.9-9.9,2.6
		c-3.1,1.7-5.5,4.1-7.2,7.1c-1.7,3-2.6,6.3-2.6,9.9c0,5.4,1.8,9.8,5.4,13.3c3.6,3.5,8.3,5.3,14,5.3c5.8,0,10.4-1.7,14-5.2
		c3.5-3.5,5.3-8,5.3-13.7c0-3.7-0.8-7-2.4-9.9c-1.6-2.9-3.9-5.2-6.9-6.9C1360.7,569.9,1357.5,569.1,1354.1,569.1z"/>
	<path class="st5" d="M1414.6,563c4.6,0,9,1.2,13,3.5c4.1,2.3,7.2,5.4,9.5,9.4c2.3,4,3.4,8.2,3.4,12.8c0,4.6-1.1,8.9-3.4,12.9
		c-2.3,4-5.4,7.2-9.4,9.4c-4,2.3-8.3,3.4-13.1,3.4c-7,0-13-2.5-18-7.5c-5-5-7.4-11.1-7.4-18.2c0-7.6,2.8-14,8.4-19.1
		C1402.5,565.2,1408.2,563,1414.6,563z M1414.8,574.6c-3.8,0-7,1.3-9.5,4c-2.5,2.7-3.8,6-3.8,10.2c0,4.3,1.3,7.7,3.8,10.3
		c2.5,2.6,5.7,4,9.5,4s7-1.3,9.6-4c2.6-2.7,3.8-6.1,3.8-10.3c0-4.2-1.3-7.6-3.8-10.2C1421.9,575.9,1418.7,574.6,1414.8,574.6z"/>
</g>
<g>
	<defs>
		<polygon id="SVGID_3_" points="117.6,315.7 364.6,187.5 250,8.8 8,138.6 		"/>
	</defs>
	<clipPath id="SVGID_4_">
		<use xlink:href="#SVGID_3_"  style="overflow:visible;"/>
	</clipPath>
	<polygon class="st6" points="117.6,315.7 364.6,187.5 250,8.8 8,138.6 	"/>
	<g class="st7">
		
			<image style="overflow:visible;opacity:0.79;" width="1243" height="799" xlink:href="6EC9D45D.png"  transform="matrix(0.24 0 0 0.24 81.3333 142.5067)">
		</image>
		<g>
			<path class="st2" d="M131.9,157.6c0,0-39.6,64.1-35,123.1c22.8,38.4,22.8,38.4,22.8,38.4l244.9-131.5l-8.4-16
				C356.2,171.5,175.3,308.9,131.9,157.6z"/>
		</g>
	</g>
	<g class="st7">
		
			<image style="overflow:visible;opacity:0.79;" width="1167" height="569" xlink:href="6EC9D45E.png"  transform="matrix(0.24 0 0 0.24 1.6533 34.0267)">
		</image>
		<g>
			<path class="st2" d="M209.9,82.1L220,80c0,0,0.4-5.9,10.1-8.9c5.9-1.7,9.7,1.7,9.7,1.7l24.9-11.8c0,0,4.2,2.5,0,4.2
				c-4.2,1.7-20.7,11-20.7,11S242.8,88,236.9,91s-7.2,5.1-7.2,5.1s-7.2,0.8-8.9-3.8c-1.7-4.6-35.8,21.1-35.8,21.1l-11.4,8.9
				c0,0-9.7,13.1-18.5,15.6c-8.9,2.5-27.4,12.6-26.1,4.2c-26.6,6.7-42.6,13.5-42.6,13.5l1.3-2.5l42.6-16.9l1.7-8.4l-12.6-3
				c0,0-5.1,3-9.7,5.1s-11.8,3.4-18.1,4.2c-6.3,0.8-11.4,3.4-19.4,3.8c-8,0.4-8,0.4-8,0.4L19,148.3c0,0-9.3-0.4,11-5.5
				c22.3-5.9,90.6-28.7,90.6-28.7l-8.4-10.1c0,0-5.5-8,6.7-2.1c12.2,5.9,12.2,5.9,12.2,5.9s11.4-8.9,20.2-6.7
				c9.3-11.8,42.6-55.6,54.4-51.8c9.7,1.7,20.2,4.2,16.4,12.2S209.9,82.1,209.9,82.1z"/>
		</g>
	</g>
	<ellipse class="st7" cx="147.5" cy="109.8" rx="6.3" ry="6.1"/>
	<ellipse class="st7" cx="232.7" cy="79" rx="6.3" ry="6.1"/>
	<path class="st7" d="M208.7,49.8c0,0-8.9,4.5-9.3,6.6c-0.4,2.1-0.4,2.1,6.2-0.8c6.6-2.9,9.9-3.5,9.9-3.5L208.7,49.8z"/>
	<path class="st8" d="M158.9,98c-0.1,0.1-0.1,0.2-0.2,0.2c-0.2,0.3-0.4,0.5-0.6,0.7c0,0.1-0.1,0.1-0.1,0.2c-0.2,0.3-0.4,0.5-0.6,0.8
		l36.7-39.8c0,0-0.1,0.1-0.3,0.3c-0.1,0.1-0.1,0.1-0.2,0.2c-0.1,0.1-0.1,0.1-0.2,0.2c-0.1,0.1-0.1,0.1-0.2,0.2
		c-0.2,0.2-0.3,0.3-0.5,0.5c0,0,0,0,0,0c-0.2,0.2-0.3,0.3-0.5,0.5c-0.2,0.2-0.3,0.3-0.5,0.5c-0.1,0.2-0.3,0.3-0.5,0.5
		c-0.1,0.1-0.2,0.2-0.3,0.4c-0.1,0.1-0.2,0.2-0.3,0.4l0,0c-1.6,1.7-3.7,3.9-6.1,6.4l0,0c-0.1,0.1-0.2,0.2-0.3,0.3
		c-0.2,0.2-0.3,0.4-0.5,0.5c-0.3,0.3-0.6,0.6-0.9,0.9c-0.2,0.2-0.3,0.4-0.5,0.5c-0.3,0.3-0.6,0.7-0.9,1c-0.2,0.2-0.3,0.4-0.5,0.5
		c-0.3,0.4-0.7,0.7-1.1,1.1c-0.1,0.1-0.3,0.3-0.4,0.4c-0.5,0.5-1,1-1.5,1.6c-0.1,0.1-0.2,0.2-0.3,0.3c-0.4,0.4-0.8,0.9-1.2,1.3
		c-0.2,0.2-0.3,0.3-0.5,0.5c-0.3,0.4-0.7,0.7-1,1.1c-0.2,0.2-0.4,0.4-0.6,0.6c-0.3,0.3-0.6,0.7-0.9,1c-0.2,0.2-0.4,0.4-0.6,0.7
		c-0.3,0.3-0.6,0.6-0.9,1c-0.2,0.2-0.4,0.4-0.6,0.6c-0.3,0.3-0.6,0.7-1,1c-0.2,0.2-0.3,0.4-0.5,0.5c-0.4,0.4-0.8,0.8-1.2,1.3
		c-0.1,0.1-0.2,0.2-0.3,0.3c-0.5,0.5-0.9,1-1.4,1.5c-0.1,0.1-0.3,0.3-0.4,0.4c-0.3,0.4-0.6,0.7-1,1.1c-0.2,0.2-0.3,0.3-0.5,0.5
		c-0.3,0.3-0.5,0.6-0.8,0.9c-0.2,0.2-0.3,0.4-0.5,0.6c-0.1,0.1-0.3,0.3-0.4,0.4l0,0c-1.1,1.2-2.1,2.3-3,3.3l0,0
		c-0.1,0.2-0.3,0.3-0.4,0.5c-0.2,0.2-0.4,0.5-0.6,0.7C159.4,97.5,159.1,97.7,158.9,98z"/>
</g>
<g>
	<path class="st4" d="M201.5,136.4h10.9l14,39.6l14.2-39.6h10.9l-20.1,55.7h-10.2L201.5,136.4z"/>
	<path class="st4" d="M261.5,134c1.2,0,2.2,0.4,3.1,1.3c0.9,0.9,1.3,1.9,1.3,3.1c0,1.2-0.4,2.2-1.3,3.1c-0.9,0.9-1.9,1.3-3.1,1.3
		c-1.2,0-2.2-0.4-3.1-1.3c-0.9-0.9-1.3-1.9-1.3-3.1c0-1.2,0.4-2.2,1.3-3.1C259.3,134.4,260.3,134,261.5,134z M258.8,151h5.3v41.2
		h-5.3V151z"/>
	<path class="st4" d="M304.9,151h10.3v41.2h-10.3v-4.4c-2,1.9-4,3.3-6.1,4.1c-2,0.8-4.2,1.3-6.6,1.3c-5.3,0-9.9-2.1-13.8-6.2
		c-3.9-4.1-5.8-9.3-5.8-15.4c0-6.4,1.9-11.6,5.6-15.7c3.8-4.1,8.3-6.1,13.7-6.1c2.5,0,4.8,0.5,7,1.4c2.2,0.9,4.2,2.3,6,4.2V151z
		 M294,159.4c-3.2,0-5.9,1.1-8,3.4c-2.1,2.3-3.2,5.2-3.2,8.7c0,3.6,1.1,6.5,3.2,8.8c2.2,2.3,4.8,3.4,8,3.4c3.2,0,5.9-1.1,8.1-3.4
		c2.1-2.3,3.2-5.2,3.2-8.9c0-3.6-1.1-6.5-3.2-8.7C300,160.6,297.3,159.4,294,159.4z"/>
	<path class="st4" d="M325.8,151h5.4v47.4c0,3.5-0.6,6-1.9,7.6c-1.2,1.6-3,2.4-5.1,2.4c-1.8,0-3.8-0.4-6.1-1.3v-4.8
		c1.4,0.7,2.7,1.1,3.8,1.1c1.4,0,2.5-0.6,3.2-1.8c0.4-0.8,0.6-2.3,0.6-4.7V151z M328.4,134c1.2,0,2.2,0.4,3.1,1.3
		c0.8,0.9,1.3,1.9,1.3,3.1c0,1.2-0.4,2.2-1.3,3.1c-0.8,0.9-1.9,1.3-3.1,1.3c-1.2,0-2.2-0.4-3.1-1.3c-0.8-0.9-1.3-1.9-1.3-3.1
		c0-1.2,0.4-2.2,1.3-3.1C326.1,134.4,327.2,134,328.4,134z"/>
	<path class="st4" d="M382.8,174.6h-33.2c0.5,2.9,1.8,5.3,3.8,7c2.1,1.7,4.7,2.6,8,2.6c3.9,0,7.2-1.4,10-4.1l8.7,4.1
		c-2.2,3.1-4.8,5.4-7.8,6.8c-3,1.5-6.6,2.2-10.8,2.2c-6.5,0-11.7-2-15.8-6.1c-4.1-4.1-6.1-9.2-6.1-15.3c0-6.3,2-11.5,6.1-15.7
		c4.1-4.2,9.1-6.2,15.3-6.2c6.5,0,11.8,2.1,15.8,6.2c4.1,4.2,6.1,9.6,6.1,16.5L382.8,174.6z M372.4,166.4c-0.7-2.3-2-4.2-4-5.6
		c-2-1.4-4.3-2.2-7-2.2c-2.9,0-5.4,0.8-7.6,2.4c-1.4,1-2.6,2.8-3.8,5.3H372.4z"/>
	<path class="st4" d="M412.6,155.5l-3.4,3.5c-2.8-2.8-5.6-4.1-8.3-4.1c-1.7,0-3.2,0.6-4.4,1.7c-1.2,1.1-1.8,2.5-1.8,4
		c0,1.3,0.5,2.6,1.5,3.8c1,1.2,3.1,2.7,6.4,4.4c3.9,2,6.6,4,8.1,5.9c1.4,1.9,2.1,4.1,2.1,6.5c0,3.4-1.2,6.3-3.6,8.6
		c-2.4,2.3-5.4,3.5-8.9,3.5c-2.4,0-4.6-0.5-6.8-1.6c-2.2-1-4-2.5-5.4-4.3l3.3-3.8c2.7,3.1,5.6,4.6,8.6,4.6c2.1,0,3.9-0.7,5.4-2
		s2.2-3,2.2-4.8c0-1.5-0.5-2.9-1.5-4.1c-1-1.2-3.2-2.6-6.7-4.4c-3.7-1.9-6.3-3.8-7.6-5.7c-1.3-1.9-2-4-2-6.4c0-3.1,1.1-5.7,3.2-7.8
		c2.1-2.1,4.8-3.1,8.1-3.1C404.9,149.9,408.7,151.7,412.6,155.5z"/>
	<path class="st4" d="M439.9,136.4h10.9l14,39.6l14.2-39.6H490l-20.1,55.7h-10.2L439.9,136.4z"/>
	<path class="st4" d="M499.9,134c1.2,0,2.2,0.4,3.1,1.3c0.9,0.9,1.3,1.9,1.3,3.1c0,1.2-0.4,2.2-1.3,3.1c-0.9,0.9-1.9,1.3-3.1,1.3
		c-1.2,0-2.2-0.4-3.1-1.3c-0.9-0.9-1.3-1.9-1.3-3.1c0-1.2,0.4-2.2,1.3-3.1C497.7,134.4,498.7,134,499.9,134z M497.2,151h5.3v41.2
		h-5.3V151z"/>
	<path class="st4" d="M510.5,151h8.9v5.2c1-2,2.2-3.6,3.8-4.7c1.6-1.1,3.3-1.6,5.2-1.6c1.3,0,2.7,0.4,4.2,1.1l-3.2,8.9
		c-1.2-0.6-2.2-0.9-3-0.9c-1.6,0-2.9,1-4,3c-1.1,2-1.6,5.8-1.6,11.6l0,2v16.7h-10.3V151z"/>
	<path class="st4" d="M573.9,151h5.3v32.9c0,5.8-0.5,10-1.5,12.7c-1.4,3.8-3.8,6.7-7.2,8.8c-3.4,2-7.6,3.1-12.4,3.1
		c-3.5,0-6.7-0.5-9.5-1.5c-2.8-1-5.1-2.3-6.9-4c-1.8-1.7-3.4-4.1-4.9-7.4h5.8c1.6,2.7,3.6,4.8,6.1,6.1c2.5,1.3,5.6,2,9.2,2
		c3.6,0,6.7-0.7,9.2-2c2.5-1.3,4.3-3,5.3-5.1c1.1-2,1.6-5.3,1.6-9.9v-2.1c-2,2.5-4.4,4.5-7.3,5.8c-2.9,1.4-5.9,2-9.2,2
		c-3.8,0-7.4-0.9-10.7-2.8c-3.3-1.9-5.9-4.4-7.7-7.6c-1.8-3.2-2.7-6.7-2.7-10.5c0-3.8,0.9-7.4,2.8-10.7c1.9-3.3,4.5-5.9,7.9-7.8
		c3.4-1.9,6.9-2.9,10.6-2.9c3.1,0,6,0.6,8.6,1.9c2.7,1.3,5.2,3.4,7.7,6.3V151z M558.3,155c-3,0-5.8,0.7-8.4,2.2
		c-2.6,1.5-4.6,3.5-6.1,6c-1.5,2.6-2.2,5.3-2.2,8.3c0,4.5,1.5,8.3,4.5,11.2c3,3,7,4.4,11.8,4.4c4.9,0,8.8-1.5,11.8-4.4
		c3-2.9,4.5-6.8,4.5-11.6c0-3.1-0.7-5.9-2-8.3c-1.4-2.4-3.3-4.4-5.8-5.8C563.9,155.7,561.2,155,558.3,155z"/>
	<path class="st4" d="M609.3,149.9c3.9,0,7.5,1,11,2.9c3.4,1.9,6.1,4.6,8,7.9c1.9,3.3,2.9,6.9,2.9,10.8c0,3.9-1,7.5-2.9,10.9
		c-1.9,3.4-4.6,6-7.9,7.9c-3.3,1.9-7,2.9-11,2.9c-5.9,0-11-2.1-15.1-6.3c-4.2-4.2-6.3-9.3-6.3-15.3c0-6.4,2.4-11.8,7.1-16.1
		C599.1,151.8,603.9,149.9,609.3,149.9z M609.5,159.6c-3.2,0-5.9,1.1-8,3.4c-2.1,2.2-3.2,5.1-3.2,8.6c0,3.6,1.1,6.5,3.2,8.7
		c2.1,2.2,4.8,3.3,8,3.3c3.2,0,5.9-1.1,8.1-3.4c2.2-2.2,3.2-5.1,3.2-8.7c0-3.5-1.1-6.4-3.2-8.6C615.5,160.7,612.8,159.6,609.5,159.6
		z"/>
</g>
<g>
	<path class="st5" d="M201.5,136.4h10.9l14,39.6l14.2-39.6h10.9l-20.1,55.7h-10.2L201.5,136.4z"/>
	<path class="st5" d="M261.5,134c1.2,0,2.2,0.4,3.1,1.3c0.9,0.9,1.3,1.9,1.3,3.1c0,1.2-0.4,2.2-1.3,3.1c-0.9,0.9-1.9,1.3-3.1,1.3
		c-1.2,0-2.2-0.4-3.1-1.3c-0.9-0.9-1.3-1.9-1.3-3.1c0-1.2,0.4-2.2,1.3-3.1C259.3,134.4,260.3,134,261.5,134z M258.8,151h5.3v41.2
		h-5.3V151z"/>
	<path class="st5" d="M304.9,151h10.3v41.2h-10.3v-4.4c-2,1.9-4,3.3-6.1,4.1c-2,0.8-4.2,1.3-6.6,1.3c-5.3,0-9.9-2.1-13.8-6.2
		c-3.9-4.1-5.8-9.3-5.8-15.4c0-6.4,1.9-11.6,5.6-15.7c3.8-4.1,8.3-6.1,13.7-6.1c2.5,0,4.8,0.5,7,1.4c2.2,0.9,4.2,2.3,6,4.2V151z
		 M294,159.4c-3.2,0-5.9,1.1-8,3.4c-2.1,2.3-3.2,5.2-3.2,8.7c0,3.6,1.1,6.5,3.2,8.8c2.2,2.3,4.8,3.4,8,3.4c3.2,0,5.9-1.1,8.1-3.4
		c2.1-2.3,3.2-5.2,3.2-8.9c0-3.6-1.1-6.5-3.2-8.7C300,160.6,297.3,159.4,294,159.4z"/>
	<path class="st5" d="M325.8,151h5.4v47.4c0,3.5-0.6,6-1.9,7.6c-1.2,1.6-3,2.4-5.1,2.4c-1.8,0-3.8-0.4-6.1-1.3v-4.8
		c1.4,0.7,2.7,1.1,3.8,1.1c1.4,0,2.5-0.6,3.2-1.8c0.4-0.8,0.6-2.3,0.6-4.7V151z M328.4,134c1.2,0,2.2,0.4,3.1,1.3
		c0.8,0.9,1.3,1.9,1.3,3.1c0,1.2-0.4,2.2-1.3,3.1c-0.8,0.9-1.9,1.3-3.1,1.3c-1.2,0-2.2-0.4-3.1-1.3c-0.8-0.9-1.3-1.9-1.3-3.1
		c0-1.2,0.4-2.2,1.3-3.1C326.1,134.4,327.2,134,328.4,134z"/>
	<path class="st5" d="M382.8,174.6h-33.2c0.5,2.9,1.8,5.3,3.8,7c2.1,1.7,4.7,2.6,8,2.6c3.9,0,7.2-1.4,10-4.1l8.7,4.1
		c-2.2,3.1-4.8,5.4-7.8,6.8c-3,1.5-6.6,2.2-10.8,2.2c-6.5,0-11.7-2-15.8-6.1c-4.1-4.1-6.1-9.2-6.1-15.3c0-6.3,2-11.5,6.1-15.7
		c4.1-4.2,9.1-6.2,15.3-6.2c6.5,0,11.8,2.1,15.8,6.2c4.1,4.2,6.1,9.6,6.1,16.5L382.8,174.6z M372.4,166.4c-0.7-2.3-2-4.2-4-5.6
		c-2-1.4-4.3-2.2-7-2.2c-2.9,0-5.4,0.8-7.6,2.4c-1.4,1-2.6,2.8-3.8,5.3H372.4z"/>
	<path class="st5" d="M412.6,155.5l-3.4,3.5c-2.8-2.8-5.6-4.1-8.3-4.1c-1.7,0-3.2,0.6-4.4,1.7c-1.2,1.1-1.8,2.5-1.8,4
		c0,1.3,0.5,2.6,1.5,3.8c1,1.2,3.1,2.7,6.4,4.4c3.9,2,6.6,4,8.1,5.9c1.4,1.9,2.1,4.1,2.1,6.5c0,3.4-1.2,6.3-3.6,8.6
		c-2.4,2.3-5.4,3.5-8.9,3.5c-2.4,0-4.6-0.5-6.8-1.6c-2.2-1-4-2.5-5.4-4.3l3.3-3.8c2.7,3.1,5.6,4.6,8.6,4.6c2.1,0,3.9-0.7,5.4-2
		s2.2-3,2.2-4.8c0-1.5-0.5-2.9-1.5-4.1c-1-1.2-3.2-2.6-6.7-4.4c-3.7-1.9-6.3-3.8-7.6-5.7c-1.3-1.9-2-4-2-6.4c0-3.1,1.1-5.7,3.2-7.8
		c2.1-2.1,4.8-3.1,8.1-3.1C404.9,149.9,408.7,151.7,412.6,155.5z"/>
	<path class="st5" d="M439.9,136.4h10.9l14,39.6l14.2-39.6H490l-20.1,55.7h-10.2L439.9,136.4z"/>
	<path class="st5" d="M499.9,134c1.2,0,2.2,0.4,3.1,1.3c0.9,0.9,1.3,1.9,1.3,3.1c0,1.2-0.4,2.2-1.3,3.1c-0.9,0.9-1.9,1.3-3.1,1.3
		c-1.2,0-2.2-0.4-3.1-1.3c-0.9-0.9-1.3-1.9-1.3-3.1c0-1.2,0.4-2.2,1.3-3.1C497.7,134.4,498.7,134,499.9,134z M497.2,151h5.3v41.2
		h-5.3V151z"/>
	<path class="st5" d="M510.5,151h8.9v5.2c1-2,2.2-3.6,3.8-4.7c1.6-1.1,3.3-1.6,5.2-1.6c1.3,0,2.7,0.4,4.2,1.1l-3.2,8.9
		c-1.2-0.6-2.2-0.9-3-0.9c-1.6,0-2.9,1-4,3c-1.1,2-1.6,5.8-1.6,11.6l0,2v16.7h-10.3V151z"/>
	<path class="st5" d="M573.9,151h5.3v32.9c0,5.8-0.5,10-1.5,12.7c-1.4,3.8-3.8,6.7-7.2,8.8c-3.4,2-7.6,3.1-12.4,3.1
		c-3.5,0-6.7-0.5-9.5-1.5c-2.8-1-5.1-2.3-6.9-4c-1.8-1.7-3.4-4.1-4.9-7.4h5.8c1.6,2.7,3.6,4.8,6.1,6.1c2.5,1.3,5.6,2,9.2,2
		c3.6,0,6.7-0.7,9.2-2c2.5-1.3,4.3-3,5.3-5.1c1.1-2,1.6-5.3,1.6-9.9v-2.1c-2,2.5-4.4,4.5-7.3,5.8c-2.9,1.4-5.9,2-9.2,2
		c-3.8,0-7.4-0.9-10.7-2.8c-3.3-1.9-5.9-4.4-7.7-7.6c-1.8-3.2-2.7-6.7-2.7-10.5c0-3.8,0.9-7.4,2.8-10.7c1.9-3.3,4.5-5.9,7.9-7.8
		c3.4-1.9,6.9-2.9,10.6-2.9c3.1,0,6,0.6,8.6,1.9c2.7,1.3,5.2,3.4,7.7,6.3V151z M558.3,155c-3,0-5.8,0.7-8.4,2.2
		c-2.6,1.5-4.6,3.5-6.1,6c-1.5,2.6-2.2,5.3-2.2,8.3c0,4.5,1.5,8.3,4.5,11.2c3,3,7,4.4,11.8,4.4c4.9,0,8.8-1.5,11.8-4.4
		c3-2.9,4.5-6.8,4.5-11.6c0-3.1-0.7-5.9-2-8.3c-1.4-2.4-3.3-4.4-5.8-5.8C563.9,155.7,561.2,155,558.3,155z"/>
	<path class="st5" d="M609.3,149.9c3.9,0,7.5,1,11,2.9c3.4,1.9,6.1,4.6,8,7.9c1.9,3.3,2.9,6.9,2.9,10.8c0,3.9-1,7.5-2.9,10.9
		c-1.9,3.4-4.6,6-7.9,7.9c-3.3,1.9-7,2.9-11,2.9c-5.9,0-11-2.1-15.1-6.3c-4.2-4.2-6.3-9.3-6.3-15.3c0-6.4,2.4-11.8,7.1-16.1
		C599.1,151.8,603.9,149.9,609.3,149.9z M609.5,159.6c-3.2,0-5.9,1.1-8,3.4c-2.1,2.2-3.2,5.1-3.2,8.6c0,3.6,1.1,6.5,3.2,8.7
		c2.1,2.2,4.8,3.3,8,3.3c3.2,0,5.9-1.1,8.1-3.4c2.2-2.2,3.2-5.1,3.2-8.7c0-3.5-1.1-6.4-3.2-8.6C615.5,160.7,612.8,159.6,609.5,159.6
		z"/>
</g>
</svg>
